<svg id="eefjMXlUTOg1" xmlns="http://www.w3.org/2000/svg" xmlns:xlink="http://www.w3.org/1999/xlink" viewBox="0 0 744.094 1052.36" shape-rendering="geometricPrecision" text-rendering="geometricPrecision"><g><path d="M362.46655,399.37379c-80.4519.30312-160.7693,30.42522-222.3125,90.28125l55.9062,55.28125c92.2564-89.61065,240.7455-90.14152,333.6562-1.15625l55.7813-55.81255c-62.0105-59.39049-142.5794-88.89687-223.0312-88.59375Zm-166.4063,145.5625l-.125.0937Z" fill="#eccf00" stroke-width="0.531496"/><path d="M362.37275,281.3738c-110.9452.41801-221.724,41.957-306.593707,124.49999l55.468707,54.84375c138.9415-134.55514,362.2624-135.23852,502.0313-1.375l56.6562-55.78125c-85.514-81.90099-196.6173-122.6055-307.5625-122.18749Zm-251.125,179.34374l-.5625.53125Z" fill="#16c605" stroke-width="0.531496"/><path d="M362.34155,516.87379c-50.088.18872-100.1218,18.95343-138.4375,56.21875l53.4375,52.8125c47.1813-45.82127,123.1117-46.06831,170.625-.5625l53.2192-53.3125c-38.6066-36.97548-88.7558-55.34497-138.8437-55.15625Zm-85,109.03125l-.063.0625Z" fill="#c60000" stroke-width="0.531496"/><ellipse rx="39.044309" ry="39.249863" transform="matrix(1.966869 0 0 1.966869 362.956068 710.569373)" fill="#a1a1a1" stroke-width="0"/></g></svg>
