<svg id="eae0jL7ziEQ1" xmlns="http://www.w3.org/2000/svg" xmlns:xlink="http://www.w3.org/1999/xlink" viewBox="0 0 512 512" shape-rendering="geometricPrecision" text-rendering="geometricPrecision"><g><rect width="512" height="512" rx="0" ry="0" stroke-width="0"/><rect width="512" height="512" rx="0" ry="0" transform="matrix(.932562 0 0 0.932562 17.264128 17.264128)" fill="#f1ff1a" stroke-width="0"/><path d="M153.7,171.5l81.9-88.1v265.3c0,11.3,9.1,20.4,20.4,20.4s20.4-9.1,20.4-20.4v-265.3l81.9,88.1c7.7,8.3,20.6,8.7,28.9,1.1c8.3-7.7,8.7-20.6,1.1-28.9L271,17.5c-11.5-11.6-25.6-5.2-29.9,0L123.8,143.7c-7.7,8.3-7.2,21.2,1.1,28.9c8.2,7.6,21.1,7.2,28.8-1.1Z" transform="matrix(.97443 0.002441-.002441 0.97443 6.980085 32.827719)"/><path d="M480.6,341.2c-11.3,0-20.4,9.1-20.4,20.4v98.4h-408.4v-98.4c0-11.3-9.1-20.4-20.4-20.4s-20.4,9.2-20.4,20.4v118.8c0,11.3,9.1,20.4,20.4,20.4h449.2c11.3,0,20.4-9.1,20.4-20.4v-118.8c0-11.2-9.1-20.4-20.4-20.4Z" transform="matrix(.915775 0 0 0.915775 21.998472 7.058852)"/></g></svg>
